<?xml version="1.0" encoding="UTF-8"?>
<svg width="144px" height="38px" viewBox="0 0 144 38" version="1.1" xmlns="http://www.w3.org/2000/svg" xmlns:xlink="http://www.w3.org/1999/xlink">
    <title>logo-white</title>
    <defs>
        <linearGradient x1="56.358792%" y1="-47.437%" x2="-39.2671605%" y2="47.418%" id="linearGradient-1">
            <stop stop-color="#32C5FF" offset="0%"></stop>
            <stop stop-color="#B620E0" offset="53.397%"></stop>
            <stop stop-color="#FFAA12" offset="100%"></stop>
        </linearGradient>
    </defs>
    <g id="Logo" stroke="none" stroke-width="1" fill="none" fill-rule="evenodd">
        <g id="logo-white">
            <path d="M54.6986341,32 L54.6986341,25.6990788 C55.2085634,25.7727738 55.6410927,25.832651 55.996222,25.8787103 C56.3513514,25.9247697 56.7110336,25.9477994 57.0752688,25.9477994 C58.2954567,25.9477994 59.4655623,25.6944729 60.5855856,25.1878199 C61.7056088,24.6811668 62.6253027,23.8520983 63.3446672,22.7006141 C64.0640318,21.54913 64.423714,20.024565 64.423714,18.1269191 C64.423714,16.0081883 63.9411024,14.3961105 62.9758791,13.2906858 C62.0106558,12.185261 60.6629856,11.6325486 58.9328684,11.6325486 C58.0951274,11.6325486 57.2755982,11.8167861 56.4742807,12.185261 C55.6729633,12.5537359 55.0264458,13.0880246 54.5347283,13.7881269 L54.5347283,13.7881269 L54.5347283,11.8536336 L50,11.8536336 L50,32 L54.6986341,32 Z M56.528916,22.3275333 C55.7093868,22.3275333 55.0992928,22.198567 54.6986341,21.9406346 L54.6986341,21.9406346 L54.6986341,18.0440123 C54.6986341,17.2886387 54.8807517,16.6898669 55.2449869,16.247697 C55.4817398,15.9713408 55.7776809,15.7548618 56.1328102,15.59826 C56.4879396,15.4416581 56.8203042,15.3633572 57.1299041,15.3633572 C58.8235978,15.3633572 59.6704446,16.4872057 59.6704446,18.7349028 C59.6704446,20.0798362 59.3608447,21.0148414 58.7416449,21.5399181 C58.122445,22.0649949 57.3848687,22.3275333 56.528916,22.3275333 Z M71.7994769,25.7267144 L71.7994769,20.0061412 C71.7994769,19.7113613 71.8085828,19.3567042 71.8267945,18.9421699 C71.8450063,18.5276356 71.8814298,18.1177073 71.9360651,17.7123849 C72.0271239,17.1412487 72.2820885,16.6438076 72.700959,16.2200614 C73.1198295,15.7963153 73.6570764,15.5844422 74.3126998,15.5844422 C75.0229584,15.5844422 75.7878524,15.8607984 76.6073816,16.4135107 L76.6073816,16.4135107 L78.7927928,12.5721597 C78.4467693,12.2958035 78.0278989,12.0701126 77.5361813,11.895087 C77.0444638,11.7200614 76.4616875,11.6325486 75.7878524,11.6325486 C74.8590526,11.6325486 74.0395234,11.8674514 73.3292647,12.3372569 C72.6190061,12.8070624 72.0908651,13.4012282 71.7448416,14.1197544 L71.7448416,14.1197544 L71.7448416,11.8536336 L67.1008428,11.8536336 L67.1008428,25.7267144 L71.7994769,25.7267144 Z M87.0973554,26.0030706 C88.2446963,26.0030706 89.3009784,25.8879222 90.2662017,25.6576254 C91.231425,25.4273286 92.1693306,25.1003071 93.0799186,24.6765609 L93.0799186,24.6765609 L93.0799186,21.0562948 C92.3150247,21.4616172 91.5410249,21.7794268 90.7579192,22.0097236 C89.9748135,22.2400205 88.9640608,22.3551689 87.7256611,22.3551689 C86.7240143,22.3551689 85.9090381,22.1340839 85.2807323,21.691914 C84.6524266,21.2497441 84.320062,20.6509724 84.2836385,19.8955988 L84.2836385,19.8955988 L93.6809067,19.8955988 C93.6991185,19.7297851 93.7127773,19.5317298 93.7218832,19.301433 C93.7309891,19.0711361 93.735542,18.863869 93.735542,18.6796315 C93.735542,16.3029683 93.1664245,14.5296827 92.0281895,13.3597748 C90.8899545,12.1898669 89.2372372,11.604913 87.0700378,11.604913 C85.3581323,11.604913 83.9467209,11.9457523 82.8358035,12.6274309 C81.7248862,13.3091095 80.8962511,14.1980553 80.3498983,15.2942682 C79.8035455,16.3904811 79.5303691,17.5742068 79.5303691,18.8454452 C79.5303691,21.1299898 80.1996513,22.8940635 81.5382156,24.1376663 C82.87678,25.3812692 84.7298266,26.0030706 87.0973554,26.0030706 Z M89.3920372,17.3254862 L84.3655914,17.3254862 C84.4384384,16.5701126 84.7161678,15.9989765 85.1987794,15.6120778 C85.6813911,15.2251791 86.2869321,15.0317298 87.0154025,15.0317298 C87.7620847,15.0317298 88.344861,15.2436029 88.7637315,15.667349 C89.182602,16.0910952 89.3920372,16.6438076 89.3920372,17.3254862 L89.3920372,17.3254862 Z M101.002034,26.0030706 C101.949046,26.0030706 102.809551,25.8142272 103.583551,25.4365404 C104.357551,25.0588536 104.963092,24.5199591 105.400174,23.8198567 L105.400174,23.8198567 L105.400174,25.7267144 L109.934903,25.7267144 L109.934903,5.35926305 L105.236269,5.35926305 L105.236269,11.9365404 C104.507798,11.7338792 103.715587,11.6325486 102.859634,11.6325486 C101.038458,11.6325486 99.5906229,11.9779939 98.516129,12.6688843 C97.4416352,13.3597748 96.6676354,14.2809621 96.1941296,15.4324463 C95.7206238,16.5839304 95.483871,17.8413511 95.483871,19.2047083 C95.483871,20.4390993 95.6705415,21.5721597 96.0438826,22.6038895 C96.4172237,23.6356192 97.0136588,24.4600819 97.833188,25.0772774 C98.6527172,25.6944729 99.7089993,26.0030706 101.002034,26.0030706 Z M102.804999,22.3275333 C101.894411,22.3275333 101.24334,21.9912999 100.851787,21.3188332 C100.460234,20.6463664 100.264458,19.7942682 100.264458,18.7625384 C100.264458,17.5097236 100.542187,16.6253838 101.097646,16.1095189 C101.653105,15.593654 102.413446,15.3357216 103.378669,15.3357216 C104.088928,15.3357216 104.708127,15.4646878 105.236269,15.7226203 L105.236269,15.7226203 L105.236269,19.6745138 C105.236269,20.0614125 105.181633,20.4022518 105.072363,20.6970317 C104.963092,20.9918117 104.826504,21.2405322 104.662598,21.4431934 C104.444057,21.7011259 104.166328,21.912999 103.82941,22.0788127 C103.492492,22.2446264 103.151022,22.3275333 102.804999,22.3275333 Z M116.108689,10.0020471 C116.764313,10.0020471 117.324324,9.75793245 117.788724,9.26970317 C118.253124,8.7814739 118.485324,8.19651996 118.485324,7.51484135 C118.485324,6.83316274 118.257677,6.24360287 117.802383,5.74616172 C117.347089,5.24872057 116.782524,5 116.108689,5 C115.434854,5 114.865737,5.24872057 114.401337,5.74616172 C113.936937,6.24360287 113.704737,6.83316274 113.704737,7.51484135 C113.704737,8.19651996 113.936937,8.7814739 114.401337,9.26970317 C114.865737,9.75793245 115.434854,10.0020471 116.108689,10.0020471 Z M118.403371,25.7267144 L118.403371,10.8587513 L113.814008,11.8536336 L113.814008,25.7267144 L118.403371,25.7267144 Z M127.964545,26.0030706 C129.585392,26.0030706 131.042333,25.6714432 132.335368,25.0081883 L132.335368,25.0081883 L132.335368,21.3050154 C131.752591,21.6550665 131.142497,21.912999 130.505086,22.0788127 C129.867674,22.2446264 129.294004,22.3275333 128.784074,22.3275333 C127.691369,22.3275333 126.858181,22.0189355 126.28451,21.40174 C125.71084,20.7845445 125.424005,19.9140225 125.424005,18.790174 C125.424005,17.7952917 125.701734,16.9570113 126.257193,16.2753327 C126.812651,15.593654 127.673157,15.2528147 128.83871,15.2528147 C129.494333,15.2528147 130.077109,15.3311157 130.587039,15.4877175 C131.096968,15.6443193 131.616003,15.8515865 132.144144,16.1095189 L132.144144,16.1095189 L132.144144,12.2958035 C131.087862,11.7983623 129.794827,11.5496418 128.265039,11.5496418 C126.862734,11.5496418 125.583358,11.8167861 124.426911,12.3510747 C123.270464,12.8853634 122.35077,13.6867963 121.667829,14.7553736 C120.984888,15.8239509 120.643418,17.1780962 120.643418,18.8178096 C120.643418,20.2180143 120.902935,21.4616172 121.42197,22.5486182 C121.941006,23.6356192 122.742323,24.4831116 123.825923,25.0910952 C124.909522,25.6990788 126.289063,26.0030706 127.964545,26.0030706 Z M140.585295,25.7267144 L140.585295,15.3633572 L144,15.3633572 L144,11.9089048 L140.585295,11.9089048 L140.585295,6.96212897 L136.187155,8.42681679 L136.187155,25.7267144 L140.585295,25.7267144 Z" id="predict" fill="#000000" fill-rule="nonzero"></path>
            <circle id="Oval" fill="url(#linearGradient-1)" cx="19" cy="19" r="19"></circle>
        </g>
    </g>
</svg>